<svg xmlns="http://www.w3.org/2000/svg" viewBox="0 0 1400 1400"><defs><style>.cls-1,.cls-4{fill:red;}.cls-1{opacity:0.2;}.cls-2,.cls-3,.cls-5{fill:none;stroke-miterlimit:10;}.cls-2{stroke:#666;}.cls-2,.cls-3{stroke-width:4px;stroke-dasharray:12;}.cls-3{stroke:red;}.cls-4{opacity:0.5;}.cls-5{stroke:#000;stroke-width:5px;}</style></defs><title>rects</title><g id="Layer_1" data-name="Layer 1"><rect class="cls-1" x="1057.5" y="206.5" width="38" height="321"/><path d="M358.5,169.83v139h-206v-139h206m2-2h-210v143h210v-143Z" transform="translate(0 -0.5)"/><path d="M495.5,347V493h-96V347h96m2-2h-100V495h100V345Z" transform="translate(0 -0.5)"/><line class="cls-2" x1="246.5" y1="345.5" x2="648.5" y2="345.5"/><line class="cls-2" x1="246.5" y1="495.5" x2="648.5" y2="495.5"/><line class="cls-2" x1="397.5" y1="619.5" x2="397.5" y2="219.5"/><line class="cls-2" x1="497.5" y1="619.5" x2="497.5" y2="219.5"/><line class="cls-2" x1="150.5" y1="438.83" x2="150.5" y2="38.83"/><line class="cls-2" x1="358.5" y1="438.83" x2="358.5" y2="38.83"/><line class="cls-2" x1="59.5" y1="167.5" x2="461.5" y2="167.5"/><line class="cls-2" x1="59.5" y1="310.5" x2="461.5" y2="310.5"/><path d="M1095.85,206.88v139h-206v-139h206m2-2h-210v143h210v-143Z" transform="translate(0 -0.5)"/><path d="M1155.5,380V526h-96V380h96m2-2h-100V528h100V378Z" transform="translate(0 -0.5)"/><line class="cls-2" x1="906.5" y1="378.5" x2="1308.5" y2="378.5"/><line class="cls-2" x1="906.5" y1="528.5" x2="1308.5" y2="528.5"/><line class="cls-3" x1="1057.5" y1="652.5" x2="1057.5" y2="252.5"/><line class="cls-2" x1="1157.5" y1="652.5" x2="1157.5" y2="252.5"/><line class="cls-2" x1="887.85" y1="475.88" x2="887.85" y2="75.88"/><line class="cls-3" x1="1095.85" y1="475.88" x2="1095.85" y2="75.88"/><line class="cls-2" x1="796.85" y1="204.55" x2="1198.85" y2="204.55"/><line class="cls-2" x1="796.85" y1="347.55" x2="1198.85" y2="347.55"/><path d="M365.85,933.88v139h-206v-139h206m2-2h-210v143h210v-143Z" transform="translate(0 -0.5)"/><path d="M502.5,1036v146h-96V1036h96m2-2h-100v150h100V1034Z" transform="translate(0 -0.5)"/><line class="cls-3" x1="253.5" y1="1034.5" x2="655.5" y2="1034.5"/><line class="cls-2" x1="253.5" y1="1184.5" x2="655.5" y2="1184.5"/><line class="cls-2" x1="404.5" y1="1308.5" x2="404.5" y2="908.5"/><line class="cls-2" x1="504.5" y1="1308.5" x2="504.5" y2="908.5"/><line class="cls-2" x1="157.85" y1="1202.88" x2="157.85" y2="802.88"/><line class="cls-2" x1="365.85" y1="1202.88" x2="365.85" y2="802.88"/><line class="cls-2" x1="66.85" y1="931.55" x2="468.85" y2="931.55"/><line class="cls-3" x1="66.85" y1="1074.55" x2="468.85" y2="1074.55"/><path d="M1102.85,962.88v139h-206v-139h206m2-2h-210v143h210v-143Z" transform="translate(0 -0.5)"/><path d="M1165.5,1057v146h-96V1057h96m2-2h-100v150h100V1055Z" transform="translate(0 -0.5)"/><line class="cls-3" x1="916.5" y1="1055.5" x2="1318.5" y2="1055.5"/><line class="cls-2" x1="916.5" y1="1205.5" x2="1318.5" y2="1205.5"/><line class="cls-3" x1="1067.5" y1="1329.5" x2="1067.5" y2="929.5"/><line class="cls-2" x1="1167.5" y1="1329.5" x2="1167.5" y2="929.5"/><line class="cls-2" x1="894.85" y1="1231.88" x2="894.85" y2="831.88"/><line class="cls-3" x1="1102.85" y1="1231.88" x2="1102.85" y2="831.88"/><line class="cls-2" x1="803.85" y1="960.55" x2="1205.85" y2="960.55"/><line class="cls-3" x1="803.85" y1="1103.55" x2="1205.85" y2="1103.55"/><rect class="cls-1" x="157.5" y="1034.5" width="347" height="40"/><rect class="cls-4" x="1067.5" y="1055.5" width="37" height="48"/><line class="cls-5" x1="700" y1="1400" x2="700"/><line class="cls-5" y1="700" x2="1400" y2="700"/></g></svg>