<svg xmlns="http://www.w3.org/2000/svg" viewBox="0 0 995 632"><defs><style>.cls-1,.cls-6,.cls-8{fill:none;}.cls-2,.cls-4{font-size:24px;}.cls-2,.cls-3{fill:red;}.cls-2,.cls-4,.cls-7{font-family:ArialMT, Arial;}.cls-5{letter-spacing:-0.06em;}.cls-6,.cls-8{stroke:#000;stroke-miterlimit:10;stroke-width:2px;}.cls-7{font-size:20.79px;}.cls-8{stroke-dasharray:2.98 2.98;}</style></defs><title>rects</title><g id="Layer_2" data-name="Layer 2"><rect class="cls-1" width="995" height="632"/></g><g id="Layer_1" data-name="Layer 1"><path d="M333,86V225H78V86H333m2-2H76V227H335V84Z"/><text class="cls-2" transform="translate(50.53 70.06)">(x, y)</text><circle class="cls-3" cx="77" cy="85" r="7.5"/><circle cx="334.5" cy="84.5" r="7.5"/><text class="cls-4" transform="translate(290.03 73.1)">(x + <tspan class="cls-5" x="47.34" y="0">w</tspan><tspan x="63.35" y="0">, y)</tspan></text><circle cx="76.5" cy="226.5" r="7.5"/><circle cx="334.5" cy="226.5" r="7.5"/><text class="cls-4" transform="translate(33.69 263.1)">(x, y + h)</text><text class="cls-4" transform="translate(266.69 263.1)">(x + <tspan class="cls-5" x="47.34" y="0">w</tspan><tspan x="63.35" y="0">, y + h)</tspan></text><path d="M864.08,88.69v139h-255v-139h255m2-2h-259v143h259v-143Z"/><text class="cls-4" transform="translate(525.61 50.75)"><tspan xml:space="preserve">(x -     , y -     )</tspan></text><circle class="cls-3" cx="737.5" cy="158.5" r="7.5"/><circle cx="865.58" cy="87.19" r="7.5"/><text class="cls-2" transform="translate(711.1 141.79)">(x, y)</text><circle cx="607.58" cy="229.19" r="7.5"/><circle cx="865.5" cy="224.5" r="7.5"/><circle cx="607.5" cy="86.5" r="7.5"/><text class="cls-4" transform="translate(569.82 41.01)">w</text><text class="cls-4" transform="translate(571.81 67.01)">2</text><line class="cls-6" x1="566.49" y1="45" x2="590.49" y2="45.5"/><text class="cls-7" transform="translate(648.35 38.25)">h</text><text class="cls-4" transform="translate(647.45 67.01)">2</text><line class="cls-6" x1="643.12" y1="45" x2="667.12" y2="45.5"/><text class="cls-4" transform="translate(786.61 50.85)"><tspan xml:space="preserve">(x +     , y -     )</tspan></text><text class="cls-4" transform="translate(835.82 41.1)">w</text><text class="cls-4" transform="translate(837.81 67.1)">2</text><line class="cls-6" x1="832.48" y1="45.1" x2="856.48" y2="45.6"/><text class="cls-4" transform="translate(914.78 41.1)">h</text><text class="cls-4" transform="translate(914.78 67.1)">2</text><line class="cls-6" x1="909.46" y1="45.1" x2="933.46" y2="45.6"/><text class="cls-4" transform="translate(530.07 267.69)"><tspan xml:space="preserve">(x -     , y +     )</tspan></text><text class="cls-4" transform="translate(574.29 257.94)">w</text><text class="cls-4" transform="translate(576.28 283.94)">2</text><line class="cls-6" x1="570.95" y1="261.93" x2="594.95" y2="262.43"/><text class="cls-4" transform="translate(659.25 258.94)">h</text><text class="cls-4" transform="translate(659.25 284.94)">2</text><line class="cls-6" x1="653.93" y1="262.93" x2="677.93" y2="263.43"/><text class="cls-4" transform="translate(790.99 267.09)"><tspan xml:space="preserve">(x +     , y +     )</tspan></text><text class="cls-4" transform="translate(840.21 258.35)">w</text><text class="cls-4" transform="translate(842.2 284.35)">2</text><line class="cls-6" x1="836.87" y1="262.34" x2="860.87" y2="262.84"/><text/><circle class="cls-6" cx="466.75" cy="469.75" r="125"/><circle class="cls-3" cx="466.75" cy="469.75" r="7.5"/><text class="cls-2" transform="translate(440.26 449.55)">(x, y)</text><line class="cls-6" x1="467" y1="470" x2="468.5" y2="470"/><line class="cls-8" x1="471.48" y1="470" x2="589.01" y2="470"/><line class="cls-6" x1="590.5" y1="470" x2="592" y2="470"/><text class="cls-4" transform="translate(533.98 494.04)">r</text><text class="cls-4" transform="translate(920.7 258.59)">h</text><text class="cls-4" transform="translate(920.7 284.59)">2</text><line class="cls-6" x1="915.38" y1="262.59" x2="939.38" y2="263.09"/></g></svg>