<svg id="Layer_1" data-name="Layer 1" xmlns="http://www.w3.org/2000/svg" viewBox="0 0 801 801"><defs><style>.cls-1,.cls-10,.cls-12,.cls-2,.cls-8{fill:none;stroke-miterlimit:10;}.cls-1{stroke:#ccc;stroke-width:0.5px;}.cls-2{stroke:#000;}.cls-10,.cls-12,.cls-2,.cls-8{stroke-width:3px;}.cls-3,.cls-4,.cls-5,.cls-6,.cls-7{isolation:isolate;font-family:ArialMT, Arial;}.cls-3,.cls-4{font-size:48px;}.cls-4{letter-spacing:-0.04em;}.cls-5,.cls-6,.cls-7{font-size:24px;}.cls-5,.cls-9{fill:#c1272d;}.cls-11,.cls-6{fill:blue;}.cls-13,.cls-7{fill:#39b54a;}.cls-8{stroke:#c1272d;}.cls-10{stroke:blue;}.cls-12{stroke:#39b54a;}</style></defs><title>vector</title><g id="Grid"><line class="cls-1" x1="349.75" y1="799.73" x2="349.75" y2="0.51"/><line class="cls-1" x1="300.09" y1="800.46" x2="300.09" y2="1.24"/><line class="cls-1" x1="249.92" y1="800.09" x2="249.92" y2="0.87"/><line class="cls-1" x1="200.26" y1="799.22" x2="200.26"/><line class="cls-1" x1="599.83" y1="799.91" x2="599.83" y2="0.69"/><line class="cls-1" x1="550.17" y1="800.64" x2="550.17" y2="1.42"/><line class="cls-1" x1="500" y1="800.27" x2="500" y2="1.06"/><line class="cls-1" x1="450.34" y1="801" x2="450.34" y2="1.78"/><line class="cls-1" x1="400.46" y1="799.78" x2="400.46" y2="0.56"/><line class="cls-1" x1="49.64" y1="800.07" x2="49.64" y2="0.86"/><line class="cls-1" x1="150.23" y1="799.74" x2="150.23" y2="0.53"/><line class="cls-1" x1="100.36" y1="800.13" x2="100.36" y2="0.91"/><line class="cls-1" x1="749.42" y1="799.82" x2="749.42" y2="0.6"/><line class="cls-1" x1="699.76" y1="800.55" x2="699.76" y2="1.33"/><line class="cls-1" x1="649.59" y1="800.18" x2="649.59" y2="0.97"/><line class="cls-1" x1="799.73" y1="448.94" x2="0.51" y2="448.94"/><line class="cls-1" x1="800.46" y1="498.6" x2="1.24" y2="498.6"/><line class="cls-1" x1="800.09" y1="548.77" x2="0.87" y2="548.77"/><line class="cls-1" x1="799.22" y1="598.43" y2="598.43"/><line class="cls-1" x1="799.91" y1="198.86" x2="0.69" y2="198.86"/><line class="cls-1" x1="800.64" y1="248.52" x2="1.42" y2="248.52"/><line class="cls-1" x1="800.27" y1="298.69" x2="1.06" y2="298.69"/><line class="cls-1" x1="801" y1="348.35" x2="1.78" y2="348.35"/><line class="cls-1" x1="799.78" y1="398.23" x2="0.56" y2="398.23"/><line class="cls-1" x1="800.07" y1="749.05" x2="0.86" y2="749.05"/><line class="cls-1" x1="799.74" y1="648.46" x2="0.53" y2="648.46"/><line class="cls-1" x1="800.13" y1="698.33" x2="0.91" y2="698.33"/><line class="cls-1" x1="799.82" y1="49.27" x2="0.6" y2="49.27"/><line class="cls-1" x1="800.55" y1="98.93" x2="1.33" y2="98.93"/><line class="cls-1" x1="800.18" y1="149.1" x2="0.97" y2="149.1"/></g><g id="Coordinates"><line class="cls-2" x1="374.09" y1="348.5" x2="424" y2="348.5"/><line class="cls-2" x1="374.04" y1="298.84" x2="423.95" y2="298.84"/><line class="cls-2" x1="374.06" y1="248.67" x2="423.98" y2="248.67"/><line class="cls-2" x1="374.02" y1="199.01" x2="423.93" y2="199.01"/><line class="cls-2" x1="374.07" y1="598.59" x2="423.99" y2="598.59"/><line class="cls-2" x1="374.03" y1="548.93" x2="423.94" y2="548.93"/><line class="cls-2" x1="374.05" y1="498.76" x2="423.97" y2="498.76"/><line class="cls-2" x1="374.01" y1="449.1" x2="423.92" y2="449.1"/><line class="cls-2" x1="349.59" y1="423.76" x2="349.59" y2="373.84"/><line class="cls-2" x1="299.93" y1="423.8" x2="299.93" y2="373.89"/><line class="cls-2" x1="249.76" y1="423.78" x2="249.76" y2="373.86"/><line class="cls-2" x1="200.1" y1="423.82" x2="200.1" y2="373.91"/><line class="cls-2" x1="599.67" y1="423.77" x2="599.67" y2="373.85"/><line class="cls-2" x1="550.02" y1="423.81" x2="550.02" y2="373.9"/><line class="cls-2" x1="499.85" y1="423.79" x2="499.85" y2="373.88"/><line class="cls-2" x1="450.19" y1="423.84" x2="450.19" y2="373.92"/></g><g id="Text"><text class="cls-3" transform="translate(712.19 412.72)">X</text><text class="cls-4" transform="translate(385.72 754.05)">Y</text></g><g id="Vectors"><text class="cls-5" transform="translate(568.58 304.59)">(3, -2)</text><text class="cls-6" transform="translate(606.06 491.66)">(4, 2)</text><text class="cls-7" transform="translate(293.83 673.05)">(-1, 5)</text></g><line class="cls-8" x1="532.37" y1="310.55" x2="400.3" y2="398.23"/><polygon class="cls-9" points="550.02 298.84 518.41 305.19 531.05 311.43 531.9 325.51 550.02 298.84"/><line class="cls-10" x1="580.91" y1="489.08" x2="400.3" y2="398.23"/><polygon class="cls-11" points="599.83 498.6 578.65 474.29 579.49 488.37 567.69 496.08 599.83 498.6"/><line class="cls-12" x1="353.94" y1="627.7" x2="400.3" y2="398.23"/><polygon class="cls-13" points="349.75 648.46 367.62 621.62 354.26 626.15 343.71 616.79 349.75 648.46"/><line class="cls-2" x1="681.65" y1="398.23" x2="100.36" y2="398.23"/><path d="M699.76,398.23c-8.52-3.16-19.09-8.55-25.64-14.27l5.16,14.27-5.16,14.26C680.67,406.78,691.24,401.39,699.76,398.23Z"/><line class="cls-2" x1="400.1" y1="680.22" x2="401.39" y2="98.93"/><path d="M400.06,698.33c3.18-8.51,8.6-19.07,14.32-25.61l-14.27,5.13-14.26-5.19C391.55,679.22,396.92,689.8,400.06,698.33Z"/></svg>