<svg id="Layer_1" data-name="Layer 1" xmlns="http://www.w3.org/2000/svg" viewBox="0 0 801 801"><defs><style>.cls-1,.cls-10,.cls-2,.cls-3,.cls-7{fill:none;stroke-miterlimit:10;}.cls-1{stroke:#ccc;stroke-width:0.5px;}.cls-2{stroke:#000;}.cls-10,.cls-2,.cls-3,.cls-7{stroke-width:3px;}.cls-3{stroke:blue;}.cls-12,.cls-13,.cls-4,.cls-5,.cls-6{isolation:isolate;font-family:ArialMT, Arial;}.cls-4,.cls-5,.cls-6{font-size:24px;}.cls-4,.cls-9{fill:#c1272d;}.cls-5,.cls-8{fill:blue;}.cls-11,.cls-6{fill:#39b54a;}.cls-7{stroke:#c1272d;}.cls-10{stroke:#39b54a;}.cls-12,.cls-13{font-size:48px;}.cls-13{letter-spacing:-0.02em;}</style></defs><title>vectorscale</title><g id="Grid"><line class="cls-1" x1="349.8" y1="799.7" x2="349.8" y2="0.5"/><line class="cls-1" x1="300.1" y1="800.5" x2="300.1" y2="1.2"/><line class="cls-1" x1="249.9" y1="800.1" x2="249.9" y2="0.9"/><line class="cls-1" x1="200.3" y1="799.2" x2="200.3"/><line class="cls-1" x1="599.8" y1="799.9" x2="599.8" y2="0.7"/><line class="cls-1" x1="550.2" y1="800.6" x2="550.2" y2="1.4"/><line class="cls-1" x1="500" y1="800.3" x2="500" y2="1.1"/><line class="cls-1" x1="450.3" y1="801" x2="450.3" y2="1.8"/><line class="cls-1" x1="400.5" y1="799.8" x2="400.5" y2="0.6"/><line class="cls-1" x1="49.6" y1="800.1" x2="49.6" y2="0.9"/><line class="cls-1" x1="150.2" y1="799.7" x2="150.2" y2="0.5"/><line class="cls-1" x1="100.4" y1="800.1" x2="100.4" y2="0.9"/><line class="cls-1" x1="749.4" y1="799.8" x2="749.4" y2="0.6"/><line class="cls-1" x1="699.8" y1="800.5" x2="699.8" y2="1.3"/><line class="cls-1" x1="649.6" y1="800.2" x2="649.6" y2="1"/><line class="cls-1" x1="799.7" y1="448.9" x2="0.5" y2="448.9"/><line class="cls-1" x1="800.5" y1="498.6" x2="1.2" y2="498.6"/><line class="cls-1" x1="800.1" y1="548.8" x2="0.9" y2="548.8"/><line class="cls-1" x1="799.2" y1="598.4" y2="598.4"/><line class="cls-1" x1="799.9" y1="198.9" x2="0.7" y2="198.9"/><line class="cls-1" x1="800.6" y1="248.5" x2="1.4" y2="248.5"/><line class="cls-1" x1="800.3" y1="298.7" x2="1.1" y2="298.7"/><line class="cls-1" x1="801" y1="348.4" x2="1.8" y2="348.4"/><line class="cls-1" x1="799.8" y1="398.2" x2="0.6" y2="398.2"/><line class="cls-1" x1="800.1" y1="749" x2="0.9" y2="749"/><line class="cls-1" x1="799.7" y1="648.5" x2="0.5" y2="648.5"/><line class="cls-1" x1="800.1" y1="698.3" x2="0.9" y2="698.3"/><line class="cls-1" x1="799.8" y1="49.3" x2="0.6" y2="49.3"/><line class="cls-1" x1="800.5" y1="98.9" x2="1.3" y2="98.9"/><line class="cls-1" x1="800.2" y1="149.1" x2="1" y2="149.1"/></g><g id="Coordinates"><line class="cls-2" x1="374.1" y1="348.5" x2="424" y2="348.5"/><line class="cls-2" x1="374" y1="298.8" x2="424" y2="298.8"/><line class="cls-2" x1="374.1" y1="248.7" x2="424" y2="248.7"/><line class="cls-2" x1="374" y1="199" x2="423.9" y2="199"/><line class="cls-2" x1="374.1" y1="598.6" x2="424" y2="598.6"/><line class="cls-2" x1="374" y1="548.9" x2="423.9" y2="548.9"/><line class="cls-2" x1="374" y1="498.8" x2="424" y2="498.8"/><line class="cls-2" x1="374" y1="449.1" x2="423.9" y2="449.1"/><line class="cls-2" x1="349.6" y1="423.8" x2="349.6" y2="373.8"/><line class="cls-2" x1="299.9" y1="423.8" x2="299.9" y2="373.9"/><line class="cls-2" x1="249.8" y1="423.8" x2="249.8" y2="373.9"/><line class="cls-2" x1="200.1" y1="423.8" x2="200.1" y2="373.9"/><line class="cls-2" x1="599.7" y1="423.8" x2="599.7" y2="373.9"/><line class="cls-2" x1="550" y1="423.8" x2="550" y2="373.9"/><line class="cls-2" x1="499.9" y1="423.8" x2="499.9" y2="373.9"/><line class="cls-2" x1="450.2" y1="423.8" x2="450.2" y2="373.9"/></g><g id="Vectors"><path class="cls-3" d="M500.5,448.5"/><text class="cls-4" transform="translate(457.62 480.24)">(2,1)</text><text class="cls-5" transform="translate(662.9 580.16)">(6,3)</text><text class="cls-6" transform="translate(223.61 348.98)">(-2, -1)</text><path class="cls-7" d="M500.5,448.5"/><path class="cls-7" d="M398.5,398.5"/></g><line class="cls-3" x1="680.8" y1="539.4" x2="494" y2="445.2"/><polygon class="cls-8" points="699.8 548.9 678.6 524.6 679.4 538.7 667.6 546.4 699.8 548.9"/><line class="cls-7" x1="481.5" y1="439.2" x2="398.5" y2="398.5"/><polygon class="cls-9" points="500.5 448.5 479.1 424.4 480.1 438.5 468.3 446.3 500.5 448.5"/><line class="cls-10" x1="319" y1="358.5" x2="398.5" y2="398.5"/><polygon class="cls-11" points="300.1 349 321.3 373.3 320.4 359.2 332.2 351.5 300.1 349"/><text class="cls-12" transform="translate(714.85 412.64)">X</text><text class="cls-13" transform="translate(385.36 749.05)">Y</text><line class="cls-2" x1="681.69" y1="398.2" x2="100.4" y2="398.2"/><path d="M699.8,398.2c-8.52-3.16-19.09-8.55-25.64-14.27l5.16,14.27-5.16,14.26C680.71,406.75,691.28,401.36,699.8,398.2Z"/><line class="cls-2" x1="398.98" y1="680.19" x2="398.5" y2="98.9"/><path d="M399,698.3c3.15-8.52,8.54-19.1,14.25-25.65L399,677.82l-14.27-5.15C390.43,679.22,395.83,689.78,399,698.3Z"/></svg>