<svg xmlns="http://www.w3.org/2000/svg" viewBox="0 0 801 801"><defs><style>.cls-1{fill:#929292;stroke:#ccc;stroke-width:0.5px;}.cls-1,.cls-2,.cls-5,.cls-7,.cls-8,.cls-9{stroke-miterlimit:10;}.cls-2,.cls-5,.cls-7,.cls-8,.cls-9{fill:none;}.cls-2{stroke:#000;}.cls-2,.cls-5{stroke-width:3px;}.cls-3,.cls-4{font-size:48px;}.cls-10,.cls-3,.cls-4{font-family:ArialMT, Arial;}.cls-4{letter-spacing:-0.02em;}.cls-5{stroke:#c1272d;}.cls-6{fill:#c1272d;}.cls-7,.cls-8,.cls-9{stroke:blue;}.cls-8{stroke-dasharray:12.64 12.64;}.cls-9{stroke-dasharray:12.53 12.53;}.cls-10{font-size:24px;fill:blue;}</style></defs><title>vectormagnitude</title><g id="Grid"><line class="cls-1" x1="349.75" y1="799.73" x2="349.75" y2="0.51"/><line class="cls-1" x1="300.09" y1="800.46" x2="300.09" y2="1.24"/><line class="cls-1" x1="249.92" y1="800.09" x2="249.92" y2="0.87"/><line class="cls-1" x1="200.26" y1="799.22" x2="200.26"/><line class="cls-1" x1="599.83" y1="799.91" x2="599.83" y2="0.69"/><line class="cls-1" x1="550.17" y1="800.64" x2="550.17" y2="1.42"/><line class="cls-1" x1="500" y1="800.27" x2="500" y2="1.06"/><line class="cls-1" x1="450.34" y1="801" x2="450.34" y2="1.78"/><line class="cls-1" x1="400.46" y1="799.78" x2="400.46" y2="0.56"/><line class="cls-1" x1="49.64" y1="800.07" x2="49.64" y2="0.86"/><line class="cls-1" x1="150.23" y1="799.74" x2="150.23" y2="0.53"/><line class="cls-1" x1="100.36" y1="800.13" x2="100.36" y2="0.91"/><line class="cls-1" x1="749.42" y1="799.82" x2="749.42" y2="0.6"/><line class="cls-1" x1="699.76" y1="800.55" x2="699.76" y2="1.33"/><line class="cls-1" x1="649.59" y1="800.18" x2="649.59" y2="0.97"/><line class="cls-1" x1="799.73" y1="448.94" x2="0.51" y2="448.94"/><line class="cls-1" x1="800.46" y1="498.6" x2="1.24" y2="498.6"/><line class="cls-1" x1="800.09" y1="548.77" x2="0.87" y2="548.77"/><line class="cls-1" x1="799.22" y1="598.43" y2="598.43"/><line class="cls-1" x1="799.91" y1="198.86" x2="0.69" y2="198.86"/><line class="cls-1" x1="800.64" y1="248.52" x2="1.42" y2="248.52"/><line class="cls-1" x1="800.27" y1="298.69" x2="1.06" y2="298.69"/><line class="cls-1" x1="801" y1="348.35" x2="1.78" y2="348.35"/><line class="cls-1" x1="799.78" y1="398.23" x2="0.56" y2="398.23"/><line class="cls-1" x1="800.07" y1="749.05" x2="0.86" y2="749.05"/><line class="cls-1" x1="799.74" y1="648.46" x2="0.53" y2="648.46"/><line class="cls-1" x1="800.13" y1="698.33" x2="0.91" y2="698.33"/><line class="cls-1" x1="799.82" y1="49.27" x2="0.6" y2="49.27"/><line class="cls-1" x1="800.55" y1="98.93" x2="1.33" y2="98.93"/><line class="cls-1" x1="800.18" y1="149.1" x2="0.97" y2="149.1"/></g><g id="Coordinates"><line class="cls-2" x1="681.39" y1="398.5" x2="99.5" y2="398.5"/><path d="M699.5,398.5c-8.52-3.16-19.09-8.55-25.64-14.27L679,398.5l-5.16,14.26C680.41,407.05,691,401.66,699.5,398.5Z" transform="translate(0 0)"/><line class="cls-2" x1="399.5" y1="680.89" x2="399.5" y2="99"/><path d="M399.5,699c3.16-8.52,8.55-19.09,14.27-25.64l-14.27,5.16-14.26-5.16C391,679.91,396.34,690.48,399.5,699Z" transform="translate(0 0)"/><line class="cls-2" x1="374.09" y1="348.5" x2="424" y2="348.5"/><line class="cls-2" x1="374.04" y1="298.84" x2="423.95" y2="298.84"/><line class="cls-2" x1="374.06" y1="248.67" x2="423.98" y2="248.67"/><line class="cls-2" x1="374.02" y1="199.01" x2="423.93" y2="199.01"/><line class="cls-2" x1="374.07" y1="598.59" x2="423.99" y2="598.59"/><line class="cls-2" x1="374.03" y1="548.93" x2="423.94" y2="548.93"/><line class="cls-2" x1="374.05" y1="498.76" x2="423.97" y2="498.76"/><line class="cls-2" x1="374.01" y1="449.1" x2="423.92" y2="449.1"/><line class="cls-2" x1="349.59" y1="423.76" x2="349.59" y2="373.84"/><line class="cls-2" x1="299.93" y1="423.8" x2="299.93" y2="373.89"/><line class="cls-2" x1="249.76" y1="423.78" x2="249.76" y2="373.86"/><line class="cls-2" x1="200.1" y1="423.82" x2="200.1" y2="373.91"/><line class="cls-2" x1="599.67" y1="423.77" x2="599.67" y2="373.85"/><line class="cls-2" x1="550.02" y1="423.81" x2="550.02" y2="373.9"/><line class="cls-2" x1="499.85" y1="423.79" x2="499.85" y2="373.88"/><line class="cls-2" x1="450.19" y1="423.84" x2="450.19" y2="373.92"/></g><g id="Text"><text class="cls-3" transform="translate(712.19 412.72)">X</text><text class="cls-4" transform="translate(385.72 754.05)">Y</text></g><g id="Vectors"><line class="cls-5" x1="537.68" y1="581.64" x2="398.5" y2="398.5"/><polygon class="cls-6" points="550.5 598.5 542.15 567.36 536.73 580.38 522.73 582.12 550.5 598.5"/><line class="cls-7" x1="550.5" y1="598.5" x2="544.5" y2="598.5"/><line class="cls-8" x1="531.86" y1="598.5" x2="411.82" y2="598.5"/><line class="cls-7" x1="405.5" y1="598.5" x2="399.5" y2="598.5"/><line class="cls-7" x1="550.5" y1="398.5" x2="550.5" y2="404.5"/><line class="cls-9" x1="550.5" y1="417.03" x2="550.5" y2="586.23"/><line class="cls-7" x1="550.5" y1="592.5" x2="550.5" y2="598.5"/><text class="cls-10" transform="translate(452.7 626.67)">x=3</text><text class="cls-10" transform="translate(564.58 507.71)">y=4</text><text class="cls-10" transform="translate(423.95 714.39)">magnitude = sqrt((3*3)+(4*4)) = 5</text></g></svg>