<svg version="1.1" id="Layer_1" xmlns="http://www.w3.org/2000/svg" xmlns:xlink="http://www.w3.org/1999/xlink" x="0px" y="0px"
	 viewBox="0 0 801 801" style="enable-background:new 0 0 801 801;" xml:space="preserve">
<style type="text/css">
	.st0{fill:none;stroke:#CCCCCC;stroke-width:0.5;stroke-miterlimit:10;}
	.st1{fill:none;stroke:#000000;stroke-width:3;stroke-miterlimit:10;}
	.st2{font-family:'ArialMT';}
	.st3{font-size:48px;}
	.st4{letter-spacing:-1;}
	.st5{fill:none;stroke:red;stroke-width:3;stroke-miterlimit:10;}
</style>
<g id="Grid">
	<line class="st0" x1="349.8" y1="799.7" x2="349.8" y2="0.5"/>
	<line class="st0" x1="300.1" y1="800.5" x2="300.1" y2="1.2"/>
	<line class="st0" x1="249.9" y1="800.1" x2="249.9" y2="0.9"/>
	<line class="st0" x1="200.3" y1="799.2" x2="200.3" y2="0"/>
	<line class="st0" x1="599.8" y1="799.9" x2="599.8" y2="0.7"/>
	<line class="st0" x1="550.2" y1="800.6" x2="550.2" y2="1.4"/>
	<line class="st0" x1="500" y1="800.3" x2="500" y2="1.1"/>
	<line class="st0" x1="450.3" y1="801" x2="450.3" y2="1.8"/>
	<line class="st0" x1="400.5" y1="799.8" x2="400.5" y2="0.6"/>
	<line class="st0" x1="49.6" y1="800.1" x2="49.6" y2="0.9"/>
	<line class="st0" x1="150.2" y1="799.7" x2="150.2" y2="0.5"/>
	<line class="st0" x1="100.4" y1="800.1" x2="100.4" y2="0.9"/>
	<line class="st0" x1="749.4" y1="799.8" x2="749.4" y2="0.6"/>
	<line class="st0" x1="699.8" y1="800.5" x2="699.8" y2="1.3"/>
	<line class="st0" x1="649.6" y1="800.2" x2="649.6" y2="1"/>
	<line class="st0" x1="799.7" y1="448.9" x2="0.5" y2="448.9"/>
	<line class="st0" x1="800.5" y1="498.6" x2="1.2" y2="498.6"/>
	<line class="st0" x1="800.1" y1="548.8" x2="0.9" y2="548.8"/>
	<line class="st0" x1="799.2" y1="598.4" x2="0" y2="598.4"/>
	<line class="st0" x1="799.9" y1="198.9" x2="0.7" y2="198.9"/>
	<line class="st0" x1="800.6" y1="248.5" x2="1.4" y2="248.5"/>
	<line class="st0" x1="800.3" y1="298.7" x2="1.1" y2="298.7"/>
	<line class="st0" x1="801" y1="348.4" x2="1.8" y2="348.4"/>
	<line class="st0" x1="799.8" y1="398.2" x2="0.6" y2="398.2"/>
	<line class="st0" x1="800.1" y1="749" x2="0.9" y2="749"/>
	<line class="st0" x1="799.7" y1="648.5" x2="0.5" y2="648.5"/>
	<line class="st0" x1="800.1" y1="698.3" x2="0.9" y2="698.3"/>
	<line class="st0" x1="799.8" y1="49.3" x2="0.6" y2="49.3"/>
	<line class="st0" x1="800.5" y1="98.9" x2="1.3" y2="98.9"/>
	<line class="st0" x1="800.2" y1="149.1" x2="1" y2="149.1"/>
</g>
<g id="Coordinates">
	<line class="st1" x1="374.1" y1="348.5" x2="424" y2="348.5"/>
	<line class="st1" x1="374" y1="298.8" x2="424" y2="298.8"/>
	<line class="st1" x1="374.1" y1="248.7" x2="424" y2="248.7"/>
	<line class="st1" x1="374" y1="199" x2="423.9" y2="199"/>
	<line class="st1" x1="374.1" y1="598.6" x2="424" y2="598.6"/>
	<line class="st1" x1="374" y1="548.9" x2="423.9" y2="548.9"/>
	<line class="st1" x1="374" y1="498.8" x2="424" y2="498.8"/>
	<line class="st1" x1="374" y1="449.1" x2="423.9" y2="449.1"/>
	<line class="st1" x1="349.6" y1="423.8" x2="349.6" y2="373.8"/>
	<line class="st1" x1="299.9" y1="423.8" x2="299.9" y2="373.9"/>
	<line class="st1" x1="249.8" y1="423.8" x2="249.8" y2="373.9"/>
	<line class="st1" x1="200.1" y1="423.8" x2="200.1" y2="373.9"/>
	<line class="st1" x1="599.7" y1="423.8" x2="599.7" y2="373.9"/>
	<line class="st1" x1="550" y1="423.8" x2="550" y2="373.9"/>
	<line class="st1" x1="499.9" y1="423.8" x2="499.9" y2="373.9"/>
	<line class="st1" x1="450.2" y1="423.8" x2="450.2" y2="373.9"/>
</g>
<g id="Text">
	<text transform="matrix(1 0 0 1 712.19 412.72)" class="st2 st3">X</text>
	<text transform="matrix(1 0 0 1 385.72 754.05)" class="st2 st3 st4">Y</text>
</g>
<line class="st5" x1="532.4" y1="310.5" x2="400.3" y2="398.2"/>
<line class="st1" x1="681.7" y1="398.2" x2="100.4" y2="398.2"/>
<path d="M699.8,398.2c-8.5-3.2-19.1-8.5-25.6-14.3l5.2,14.3l-5.2,14.3C680.7,406.8,691.2,401.4,699.8,398.2z"/>
<line class="st1" x1="400.1" y1="680.2" x2="401.4" y2="98.9"/>
<path d="M400.1,698.3c3.2-8.5,8.6-19.1,14.3-25.6l-14.3,5.1l-14.3-5.2C391.5,679.2,396.9,689.8,400.1,698.3z"/>
</svg>
